# xmcd
#
# Track frame offsets:
# 150
# 14791
# 27277
# 39903
# 46025
# 50314
# 64108
# 72381
# 87319
# 97836
# 111447
# 122442
# 131016
# 151761
# 165815
# 173616
#
# Disc length: 2471 seconds
#
#
# Revision: 0
# Processed by: cddbd v1.5.2PL0 Copyright (c) Steve Scherf et al.
# Submitted via: FreeRIP 2.951 
#
DISCID=bf09a510
DTITLE=Mikis Theodorakis - Ta Navia
DYEAR=2003
DGENRE=Folk
TTITLE0=The Sad Lady
TTITLE1=The Bachelor
TTITLE2=The Fare
TTITLE3=In the Sky of the Neighbourhood
TTITLE4=Stoke of the Pick
TTITLE5=Under Your Window
TTITLE6=Hassaposervikos Dance
TTITLE7=Roxy
TTITLE8=ZorbaZcene 13 Dance of the Woman
TTITLE9=Kyklamino
TTITLE10=The Children
TTITLE11=The Kites
TTITLE12=It´s getting dark
TTITLE13=The bitter Saturday
TTITLE14=A grieved virgin Mary
TTITLE15=The Spell
EXTD=
EXTT0=
EXTT1=
EXTT2=
EXTT3=
EXTT4=
EXTT5=
EXTT6=
EXTT7=
EXTT8=
EXTT9=
EXTT10=
EXTT11=
EXTT12=
EXTT13=
EXTT14=
EXTT15=
PLAYORDER=
